<?xml version="1.0" encoding="utf-8"?>
<!-- Generator: Adobe Illustrator 25.2.3, SVG Export Plug-In . SVG Version: 6.00 Build 0)  -->
<svg version="1.1" id="Layer_1" xmlns="http://www.w3.org/2000/svg" xmlns:xlink="http://www.w3.org/1999/xlink" x="0px" y="0px"
	 viewBox="0 0 1366 768" style="enable-background:new 0 0 1366 768;" xml:space="preserve">
<style type="text/css">
	.st0{fill:#2AD2FF;}
</style>
<g>
	<path class="st0" d="M376.88,326.48c6.17,15.03,8.89,22.33,11.29,29.19c2.3-6.86,5.02-14.01,11.19-29.04l11.19-27.73
		c2.51-6.28,6.27-10.36,11.92-10.36c5.44,0,10.24,4.38,12.13,13.43l17.67,85.82h-21.53l-6.59-34.01
		c-2.2-11.09-3.66-18.97-4.81-26.85c-2.3,6.86-4.91,14.3-9.72,27l-9.41,24.52c-3.66,9.63-7.21,10.95-12.44,10.95
		s-8.78-1.31-12.44-10.95l-9.41-24.67c-5.12-13.43-7.63-20.29-9.83-26.85c-1.05,7.74-2.61,15.91-4.7,26.85l-6.59,34.01h-21.22
		l18.09-85.82c1.88-9.05,6.79-13.43,12.23-13.43c5.54,0,9.3,3.94,11.81,10.36L376.88,326.48z"/>
	<path class="st0" d="M545.08,362.68l-13.9,25.1h-35.12c-24.25,0-42.13-21.45-42.13-49.77c0-28.61,17.88-47.87,42.13-47.87h49.03
		l-13.9,25.4h-35.12c-11.71,0-20.49,9.78-20.49,23.79c0,13.87,8.68,23.35,20.49,23.35H545.08z"/>
	<path class="st0" d="M641.57,362.68l-13.9,25.1h-35.12c-24.25,0-42.13-21.45-42.13-49.77c0-28.61,17.88-47.87,42.13-47.87h49.03
		l-13.9,25.4h-35.12c-11.71,0-20.49,9.78-20.49,23.79c0,13.87,8.68,23.35,20.49,23.35H641.57z"/>
	<path class="st0" d="M749.14,338.89c0,34.88-17.14,50.5-51.12,50.5c-34.08,0-51.12-15.62-51.12-50.5
		c0-34.88,17.04-50.35,51.12-50.35C732,288.54,749.14,304.01,749.14,338.89z M727.6,338.89c0-21.02-7.84-24.96-29.58-24.96
		c-21.74,0-29.58,3.94-29.58,24.96c0,21.02,7.84,25.1,29.58,25.1C719.76,363.99,727.6,359.9,727.6,338.89z"/>
	<path class="st0" d="M850.96,345.16c0,29.48-14.53,44.22-43.59,44.22c-33.66,0-48.19-14.74-48.19-44.22v-55.02h21.53v55.02
		c0,14.45,4.39,19.12,26.66,19.12c16.62,0,21.85-5.4,21.85-19.12v-55.02h21.74V345.16z"/>
	<path class="st0" d="M962.39,387.78h-28.96l-15.58-25.83h-33.24v25.83h-21.64v-49.92h60.84c6.69,0,11.92-4.23,11.92-10.95
		c0-7.59-4.5-11.38-11.92-11.38h-60.84l14.11-25.4h44.95c15.89,0,35.96,7.01,35.96,34.88c0,15.18-6.79,27.73-18.29,30.94
		c2.4,2.48,5.02,5.98,9.83,12.84L962.39,387.78z"/>
	<path class="st0" d="M1057,290.14l-14.01,25.4h-24.99v72.25h-21.64v-72.25h-32.83l14.01-25.4H1057z"/>
</g>
</svg>
